<?xml version="1.0" encoding="UTF-8" standalone="no"?><svg xmlns="http://www.w3.org/2000/svg" xmlns:xlink="http://www.w3.org/1999/xlink" contentScriptType="application/ecmascript" contentStyleType="text/css" height="632px" preserveAspectRatio="none" style="width:1170px;height:632px;background:#FFFFFF;" version="1.1" viewBox="0 0 1170 632" width="1170px" zoomAndPan="magnify"><defs><filter height="300%" id="faomy8h3qa1sj" width="300%" x="-1" y="-1"><feGaussianBlur result="blurOut" stdDeviation="2.0"/><feColorMatrix in="blurOut" result="blurOut2" type="matrix" values="0 0 0 0 0 0 0 0 0 0 0 0 0 0 0 0 0 0 .4 0"/><feOffset dx="4.0" dy="4.0" in="blurOut2" result="blurOut3"/><feBlend in="SourceGraphic" in2="blurOut3" mode="normal"/></filter></defs><g><!--MD5=[2df9d1dc4eb2f0075a8f53779be998a1]
cluster spellcheck--><polygon fill="#FFFFFF" filter="url(#faomy8h3qa1sj)" points="16,6,97,6,104,28.4883,333,28.4883,333,599,16,599,16,6" style="stroke:#000000;stroke-width:1.5;"/><line style="stroke:#000000;stroke-width:1.5;" x1="16" x2="104" y1="28.4883" y2="28.4883"/><text fill="#000000" font-family="sans-serif" font-size="14" font-weight="bold" lengthAdjust="spacing" textLength="75" x="20" y="21.5352">spellcheck</text><!--MD5=[58ffefb88418a46915fd13e5925992b1]
cluster token--><polygon fill="#FFFFFF" filter="url(#faomy8h3qa1sj)" points="818,6,865,6,872,28.4883,1153,28.4883,1153,599,818,599,818,6" style="stroke:#000000;stroke-width:1.5;"/><line style="stroke:#000000;stroke-width:1.5;" x1="818" x2="872" y1="28.4883" y2="28.4883"/><text fill="#000000" font-family="sans-serif" font-size="14" font-weight="bold" lengthAdjust="spacing" textLength="41" x="822" y="21.5352">token</text><!--MD5=[cb643d2e99e3f88089b3a75eeb15303b]
cluster command--><polygon fill="#FFFFFF" filter="url(#faomy8h3qa1sj)" points="357,6,433,6,440,28.4883,794,28.4883,794,625,357,625,357,6" style="stroke:#000000;stroke-width:1.5;"/><line style="stroke:#000000;stroke-width:1.5;" x1="357" x2="440" y1="28.4883" y2="28.4883"/><text fill="#000000" font-family="sans-serif" font-size="14" font-weight="bold" lengthAdjust="spacing" textLength="70" x="361" y="21.5352">command</text><!--MD5=[7aa1f1dff9826083057fe155c5dd6e52]
class Checker--><rect codeLine="3" fill="#FEFECE" filter="url(#faomy8h3qa1sj)" height="60.9551" id="Checker" style="stroke:#A80036;stroke-width:1.5;" width="110" x="39" y="166"/><ellipse cx="67.95" cy="182" fill="#B4A7E5" rx="11" ry="11" style="stroke:#A80036;stroke-width:1.0;"/><path d="M64.3777,178.2651 L64.3777,176.1069 L71.7571,176.1069 L71.7571,178.2651 L69.2918,178.2651 L69.2918,186.3418 L71.7571,186.3418 L71.7571,188.5 L64.3777,188.5 L64.3777,186.3418 L66.8431,186.3418 L66.8431,178.2651 Z " fill="#000000"/><text fill="#000000" font-family="sans-serif" font-size="12" font-style="italic" lengthAdjust="spacing" textLength="47" x="85.05" y="186.5352">Checker</text><line style="stroke:#A80036;stroke-width:1.5;" x1="40" x2="148" y1="198" y2="198"/><line style="stroke:#A80036;stroke-width:1.5;" x1="40" x2="148" y1="206" y2="206"/><text fill="#000000" font-family="sans-serif" font-size="11" lengthAdjust="spacing" textLength="98" x="45" y="220.6348">bool check(string)</text><!--MD5=[74d8c8e1b5794f3d566fd26dbb744bd0]
class TheChecker--><rect codeLine="6" fill="#FEFECE" filter="url(#faomy8h3qa1sj)" height="48" id="TheChecker" style="stroke:#A80036;stroke-width:1.5;" width="101" x="172.5" y="41"/><ellipse cx="187.5" cy="57" fill="#ADD1B2" rx="11" ry="11" style="stroke:#A80036;stroke-width:1.0;"/><path d="M191.1143,63.5 L183.3945,63.5 L183.3945,51.1069 L191.1143,51.1069 L191.1143,53.2651 L185.8433,53.2651 L185.8433,55.938 L190.6162,55.938 L190.6162,58.0962 L185.8433,58.0962 L185.8433,61.3418 L191.1143,61.3418 Z " fill="#000000"/><text fill="#000000" font-family="sans-serif" font-size="12" lengthAdjust="spacing" textLength="69" x="201.5" y="61.5352">TheChecker</text><line style="stroke:#A80036;stroke-width:1.5;" x1="173.5" x2="272.5" y1="73" y2="73"/><line style="stroke:#A80036;stroke-width:1.5;" x1="173.5" x2="272.5" y1="81" y2="81"/><!--MD5=[67ad2c8b0f4667fb3f12943ea39d12ac]
class DictChecker--><rect codeLine="8" fill="#FEFECE" filter="url(#faomy8h3qa1sj)" height="73.9102" id="DictChecker" style="stroke:#A80036;stroke-width:1.5;" width="124" x="32" y="367.5"/><ellipse cx="57.35" cy="383.5" fill="#ADD1B2" rx="11" ry="11" style="stroke:#A80036;stroke-width:1.0;"/><path d="M59.8231,389.6431 Q59.2421,389.9419 58.6029,390.0913 Q57.9638,390.2407 57.2582,390.2407 Q54.7514,390.2407 53.4315,388.5889 Q52.1117,386.937 52.1117,383.8159 Q52.1117,380.6865 53.4315,379.0347 Q54.7514,377.3828 57.2582,377.3828 Q57.9638,377.3828 58.6112,377.5322 Q59.2587,377.6816 59.8231,377.9805 L59.8231,380.7031 Q59.1923,380.1221 58.5988,379.8523 Q58.0053,379.5825 57.3744,379.5825 Q56.0297,379.5825 55.3449,380.6492 Q54.6601,381.7158 54.6601,383.8159 Q54.6601,385.9077 55.3449,386.9744 Q56.0297,388.041 57.3744,388.041 Q58.0053,388.041 58.5988,387.7712 Q59.1923,387.5015 59.8231,386.9204 Z " fill="#000000"/><text fill="#000000" font-family="sans-serif" font-size="12" lengthAdjust="spacing" textLength="69" x="73.65" y="388.0352">DictChecker</text><line style="stroke:#A80036;stroke-width:1.5;" x1="33" x2="155" y1="399.5" y2="399.5"/><rect fill="none" height="6" style="stroke:#C82930;stroke-width:1.0;" width="6" x="40" y="407.5"/><text fill="#000000" font-family="sans-serif" font-size="11" lengthAdjust="spacing" textLength="20" x="52" y="414.1348">dict</text><line style="stroke:#A80036;stroke-width:1.5;" x1="33" x2="155" y1="420.4551" y2="420.4551"/><ellipse cx="43" cy="431.4551" fill="#84BE84" rx="3" ry="3" style="stroke:#038048;stroke-width:1.0;"/><text fill="#000000" font-family="sans-serif" font-size="11" lengthAdjust="spacing" textLength="98" x="52" y="435.0898">bool check(string)</text><!--MD5=[b28919ebc7bee3f5b1dc25498f6c63c3]
class EngDictChecker--><rect codeLine="13" fill="#FEFECE" filter="url(#faomy8h3qa1sj)" height="48" id="EngDictChecker" style="stroke:#A80036;stroke-width:1.5;" width="122" x="188" y="535"/><ellipse cx="203" cy="551" fill="#ADD1B2" rx="11" ry="11" style="stroke:#A80036;stroke-width:1.0;"/><path d="M206.6143,557.5 L198.8945,557.5 L198.8945,545.1069 L206.6143,545.1069 L206.6143,547.2651 L201.3433,547.2651 L201.3433,549.938 L206.1162,549.938 L206.1162,552.0962 L201.3433,552.0962 L201.3433,555.3418 L206.6143,555.3418 Z " fill="#000000"/><text fill="#000000" font-family="sans-serif" font-size="12" lengthAdjust="spacing" textLength="90" x="217" y="555.5352">EngDictChecker</text><line style="stroke:#A80036;stroke-width:1.5;" x1="189" x2="309" y1="567" y2="567"/><line style="stroke:#A80036;stroke-width:1.5;" x1="189" x2="309" y1="575" y2="575"/><!--MD5=[1880b7ed676ee932d103441df42810d2]
class FraDictChecker--><rect codeLine="14" fill="#FEFECE" filter="url(#faomy8h3qa1sj)" height="48" id="FraDictChecker" style="stroke:#A80036;stroke-width:1.5;" width="119" x="33.5" y="535"/><ellipse cx="48.5" cy="551" fill="#ADD1B2" rx="11" ry="11" style="stroke:#A80036;stroke-width:1.0;"/><path d="M52.1143,557.5 L44.3945,557.5 L44.3945,545.1069 L52.1143,545.1069 L52.1143,547.2651 L46.8433,547.2651 L46.8433,549.938 L51.6162,549.938 L51.6162,552.0962 L46.8433,552.0962 L46.8433,555.3418 L52.1143,555.3418 Z " fill="#000000"/><text fill="#000000" font-family="sans-serif" font-size="12" lengthAdjust="spacing" textLength="87" x="62.5" y="555.5352">FraDictChecker</text><line style="stroke:#A80036;stroke-width:1.5;" x1="34.5" x2="151.5" y1="567" y2="567"/><line style="stroke:#A80036;stroke-width:1.5;" x1="34.5" x2="151.5" y1="575" y2="575"/><!--MD5=[8825ff087e19dd6ae0f6f38a66ec7b0b]
class LangManager--><rect codeLine="18" fill="#FEFECE" filter="url(#faomy8h3qa1sj)" height="60.9551" id="LangManager" style="stroke:#A80036;stroke-width:1.5;" width="126" x="191" y="374"/><ellipse cx="213.65" cy="390" fill="#B4A7E5" rx="11" ry="11" style="stroke:#A80036;stroke-width:1.0;"/><path d="M210.0777,386.2651 L210.0777,384.1069 L217.4571,384.1069 L217.4571,386.2651 L214.9918,386.2651 L214.9918,394.3418 L217.4571,394.3418 L217.4571,396.5 L210.0777,396.5 L210.0777,394.3418 L212.5431,394.3418 L212.5431,386.2651 Z " fill="#000000"/><text fill="#000000" font-family="sans-serif" font-size="12" font-style="italic" lengthAdjust="spacing" textLength="77" x="229.35" y="394.5352">LangManager</text><line style="stroke:#A80036;stroke-width:1.5;" x1="192" x2="316" y1="406" y2="406"/><line style="stroke:#A80036;stroke-width:1.5;" x1="192" x2="316" y1="414" y2="414"/><ellipse cx="202" cy="425" fill="#84BE84" rx="3" ry="3" style="stroke:#038048;stroke-width:1.0;"/><text fill="#000000" font-family="sans-serif" font-size="11" lengthAdjust="spacing" textLength="100" x="211" y="428.6348">switchLang(string)</text><!--MD5=[352579e5bd2ba4fa224b2f10e8c138f9]
class TheLangManager--><rect codeLine="21" fill="#FEFECE" filter="url(#faomy8h3qa1sj)" height="48" id="TheLangManager" style="stroke:#A80036;stroke-width:1.5;" width="131" x="185.5" y="172.5"/><ellipse cx="200.5" cy="188.5" fill="#ADD1B2" rx="11" ry="11" style="stroke:#A80036;stroke-width:1.0;"/><path d="M204.1143,195 L196.3945,195 L196.3945,182.6069 L204.1143,182.6069 L204.1143,184.7651 L198.8433,184.7651 L198.8433,187.438 L203.6162,187.438 L203.6162,189.5962 L198.8433,189.5962 L198.8433,192.8418 L204.1143,192.8418 Z " fill="#000000"/><text fill="#000000" font-family="sans-serif" font-size="12" lengthAdjust="spacing" textLength="99" x="214.5" y="193.0352">TheLangManager</text><line style="stroke:#A80036;stroke-width:1.5;" x1="186.5" x2="315.5" y1="204.5" y2="204.5"/><line style="stroke:#A80036;stroke-width:1.5;" x1="186.5" x2="315.5" y1="212.5" y2="212.5"/><!--MD5=[098c14fa8ff51f317e173d903fc6eda5]
class TheTokenizer--><rect codeLine="27" fill="#FEFECE" filter="url(#faomy8h3qa1sj)" height="48" id="TheTokenizer" style="stroke:#A80036;stroke-width:1.5;" width="112" x="834" y="172.5"/><ellipse cx="849" cy="188.5" fill="#ADD1B2" rx="11" ry="11" style="stroke:#A80036;stroke-width:1.0;"/><path d="M852.6143,195 L844.8945,195 L844.8945,182.6069 L852.6143,182.6069 L852.6143,184.7651 L847.3433,184.7651 L847.3433,187.438 L852.1162,187.438 L852.1162,189.5962 L847.3433,189.5962 L847.3433,192.8418 L852.6143,192.8418 Z " fill="#000000"/><text fill="#000000" font-family="sans-serif" font-size="12" lengthAdjust="spacing" textLength="80" x="863" y="193.0352">TheTokenizer</text><line style="stroke:#A80036;stroke-width:1.5;" x1="835" x2="945" y1="204.5" y2="204.5"/><line style="stroke:#A80036;stroke-width:1.5;" x1="835" x2="945" y1="212.5" y2="212.5"/><!--MD5=[d8c8cfd5ca149094f5b67f9f607a5ec7]
class Token--><rect codeLine="28" fill="#FEFECE" filter="url(#faomy8h3qa1sj)" height="73.9102" id="Token" style="stroke:#A80036;stroke-width:1.5;" width="80" x="834" y="367.5"/><ellipse cx="854.4" cy="383.5" fill="#B4A7E5" rx="11" ry="11" style="stroke:#A80036;stroke-width:1.0;"/><path d="M850.8277,379.7651 L850.8277,377.6069 L858.2071,377.6069 L858.2071,379.7651 L855.7418,379.7651 L855.7418,387.8418 L858.2071,387.8418 L858.2071,390 L850.8277,390 L850.8277,387.8418 L853.2931,387.8418 L853.2931,379.7651 Z " fill="#000000"/><text fill="#000000" font-family="sans-serif" font-size="12" font-style="italic" lengthAdjust="spacing" textLength="36" x="869.6" y="388.0352">Token</text><line style="stroke:#A80036;stroke-width:1.5;" x1="835" x2="913" y1="399.5" y2="399.5"/><line style="stroke:#A80036;stroke-width:1.5;" x1="835" x2="913" y1="407.5" y2="407.5"/><text fill="#000000" font-family="sans-serif" font-size="11" lengthAdjust="spacing" textLength="45" x="840" y="422.1348">isWord()</text><text fill="#000000" font-family="sans-serif" font-size="11" lengthAdjust="spacing" textLength="68" x="840" y="435.0898">getContext()</text><!--MD5=[7763e024349b4cac7a01779176319d84]
class Tokenizer--><rect codeLine="32" fill="#FEFECE" filter="url(#faomy8h3qa1sj)" height="60.9551" id="Tokenizer" style="stroke:#A80036;stroke-width:1.5;" width="112" x="949" y="374"/><ellipse cx="973.9" cy="390" fill="#B4A7E5" rx="11" ry="11" style="stroke:#A80036;stroke-width:1.0;"/><path d="M970.3277,386.2651 L970.3277,384.1069 L977.7071,384.1069 L977.7071,386.2651 L975.2418,386.2651 L975.2418,394.3418 L977.7071,394.3418 L977.7071,396.5 L970.3277,396.5 L970.3277,394.3418 L972.7931,394.3418 L972.7931,386.2651 Z " fill="#000000"/><text fill="#000000" font-family="sans-serif" font-size="12" font-style="italic" lengthAdjust="spacing" textLength="58" x="990.1" y="394.5352">Tokenizer</text><line style="stroke:#A80036;stroke-width:1.5;" x1="950" x2="1060" y1="406" y2="406"/><line style="stroke:#A80036;stroke-width:1.5;" x1="950" x2="1060" y1="414" y2="414"/><text fill="#000000" font-family="sans-serif" font-size="11" lengthAdjust="spacing" textLength="100" x="955" y="428.6348">[]Token lex(string)</text><!--MD5=[9c9745bbb6bf068a0a107d717a445e02]
class TxtTokenizer--><rect codeLine="38" fill="#FEFECE" filter="url(#faomy8h3qa1sj)" height="48" id="TxtTokenizer" style="stroke:#A80036;stroke-width:1.5;" width="109" x="1004.5" y="535"/><ellipse cx="1019.5" cy="551" fill="#ADD1B2" rx="11" ry="11" style="stroke:#A80036;stroke-width:1.0;"/><path d="M1021.9731,557.1431 Q1021.3921,557.4419 1020.7529,557.5913 Q1020.1138,557.7407 1019.4082,557.7407 Q1016.9014,557.7407 1015.5815,556.0889 Q1014.2617,554.437 1014.2617,551.3159 Q1014.2617,548.1865 1015.5815,546.5347 Q1016.9014,544.8828 1019.4082,544.8828 Q1020.1138,544.8828 1020.7612,545.0322 Q1021.4087,545.1816 1021.9731,545.4805 L1021.9731,548.2031 Q1021.3423,547.6221 1020.7488,547.3523 Q1020.1553,547.0825 1019.5244,547.0825 Q1018.1797,547.0825 1017.4949,548.1492 Q1016.8101,549.2158 1016.8101,551.3159 Q1016.8101,553.4077 1017.4949,554.4744 Q1018.1797,555.541 1019.5244,555.541 Q1020.1553,555.541 1020.7488,555.2712 Q1021.3423,555.0015 1021.9731,554.4204 Z " fill="#000000"/><text fill="#000000" font-family="sans-serif" font-size="12" lengthAdjust="spacing" textLength="77" x="1033.5" y="555.5352">TxtTokenizer</text><line style="stroke:#A80036;stroke-width:1.5;" x1="1005.5" x2="1112.5" y1="567" y2="567"/><line style="stroke:#A80036;stroke-width:1.5;" x1="1005.5" x2="1112.5" y1="575" y2="575"/><!--MD5=[5bb02cc656b41a4a9b08c940a50cbf7e]
class XmlTokenizer--><rect codeLine="39" fill="#FEFECE" filter="url(#faomy8h3qa1sj)" height="48" id="XmlTokenizer" style="stroke:#A80036;stroke-width:1.5;" width="112" x="857" y="535"/><ellipse cx="872" cy="551" fill="#ADD1B2" rx="11" ry="11" style="stroke:#A80036;stroke-width:1.0;"/><path d="M874.4731,557.1431 Q873.8921,557.4419 873.2529,557.5913 Q872.6138,557.7407 871.9082,557.7407 Q869.4014,557.7407 868.0815,556.0889 Q866.7617,554.437 866.7617,551.3159 Q866.7617,548.1865 868.0815,546.5347 Q869.4014,544.8828 871.9082,544.8828 Q872.6138,544.8828 873.2612,545.0322 Q873.9087,545.1816 874.4731,545.4805 L874.4731,548.2031 Q873.8423,547.6221 873.2488,547.3523 Q872.6553,547.0825 872.0244,547.0825 Q870.6797,547.0825 869.9949,548.1492 Q869.3101,549.2158 869.3101,551.3159 Q869.3101,553.4077 869.9949,554.4744 Q870.6797,555.541 872.0244,555.541 Q872.6553,555.541 873.2488,555.2712 Q873.8423,555.0015 874.4731,554.4204 Z " fill="#000000"/><text fill="#000000" font-family="sans-serif" font-size="12" lengthAdjust="spacing" textLength="80" x="886" y="555.5352">XmlTokenizer</text><line style="stroke:#A80036;stroke-width:1.5;" x1="858" x2="968" y1="567" y2="567"/><line style="stroke:#A80036;stroke-width:1.5;" x1="858" x2="968" y1="575" y2="575"/><!--MD5=[c1aa65127623d56e2f0f5bf7811d058b]
class ContentTypeManager--><rect codeLine="43" fill="#FEFECE" filter="url(#faomy8h3qa1sj)" height="60.9551" id="ContentTypeManager" style="stroke:#A80036;stroke-width:1.5;" width="155" x="981.5" y="166"/><ellipse cx="996.5" cy="182" fill="#B4A7E5" rx="11" ry="11" style="stroke:#A80036;stroke-width:1.0;"/><path d="M992.9277,178.2651 L992.9277,176.1069 L1000.3071,176.1069 L1000.3071,178.2651 L997.8418,178.2651 L997.8418,186.3418 L1000.3071,186.3418 L1000.3071,188.5 L992.9277,188.5 L992.9277,186.3418 L995.3931,186.3418 L995.3931,178.2651 Z " fill="#000000"/><text fill="#000000" font-family="sans-serif" font-size="12" font-style="italic" lengthAdjust="spacing" textLength="123" x="1010.5" y="186.5352">ContentTypeManager</text><line style="stroke:#A80036;stroke-width:1.5;" x1="982.5" x2="1135.5" y1="198" y2="198"/><line style="stroke:#A80036;stroke-width:1.5;" x1="982.5" x2="1135.5" y1="206" y2="206"/><text fill="#000000" font-family="sans-serif" font-size="11" lengthAdjust="spacing" textLength="143" x="987.5" y="220.6348">switchContentType(string)</text><!--MD5=[1c380b7f28cf424825d74457494ad064]
class TheContentTypeManager--><rect codeLine="46" fill="#FEFECE" filter="url(#faomy8h3qa1sj)" height="48" id="TheContentTypeManager" style="stroke:#A80036;stroke-width:1.5;" width="177" x="896.5" y="41"/><ellipse cx="911.5" cy="57" fill="#ADD1B2" rx="11" ry="11" style="stroke:#A80036;stroke-width:1.0;"/><path d="M915.1143,63.5 L907.3945,63.5 L907.3945,51.1069 L915.1143,51.1069 L915.1143,53.2651 L909.8433,53.2651 L909.8433,55.938 L914.6162,55.938 L914.6162,58.0962 L909.8433,58.0962 L909.8433,61.3418 L915.1143,61.3418 Z " fill="#000000"/><text fill="#000000" font-family="sans-serif" font-size="12" lengthAdjust="spacing" textLength="145" x="925.5" y="61.5352">TheContentTypeManager</text><line style="stroke:#A80036;stroke-width:1.5;" x1="897.5" x2="1072.5" y1="73" y2="73"/><line style="stroke:#A80036;stroke-width:1.5;" x1="897.5" x2="1072.5" y1="81" y2="81"/><!--MD5=[521817ab83e81da341a3f4b5e91bae41]
class Command--><rect codeLine="53" fill="#FEFECE" filter="url(#faomy8h3qa1sj)" height="60.9551" id="Command" style="stroke:#A80036;stroke-width:1.5;" width="91" x="539.5" y="374"/><ellipse cx="554.5" cy="390" fill="#B4A7E5" rx="11" ry="11" style="stroke:#A80036;stroke-width:1.0;"/><path d="M550.9277,386.2651 L550.9277,384.1069 L558.3071,384.1069 L558.3071,386.2651 L555.8418,386.2651 L555.8418,394.3418 L558.3071,394.3418 L558.3071,396.5 L550.9277,396.5 L550.9277,394.3418 L553.3931,394.3418 L553.3931,386.2651 Z " fill="#000000"/><text fill="#000000" font-family="sans-serif" font-size="12" font-style="italic" lengthAdjust="spacing" textLength="59" x="568.5" y="394.5352">Command</text><line style="stroke:#A80036;stroke-width:1.5;" x1="540.5" x2="629.5" y1="406" y2="406"/><line style="stroke:#A80036;stroke-width:1.5;" x1="540.5" x2="629.5" y1="414" y2="414"/><ellipse cx="550.5" cy="425" fill="#84BE84" rx="3" ry="3" style="stroke:#038048;stroke-width:1.0;"/><text fill="#000000" font-family="sans-serif" font-size="11" lengthAdjust="spacing" textLength="50" x="559.5" y="428.6348">execute()</text><!--MD5=[d4f2e88d59a20de4dcbdbec28ccd6d78]
class MutCommand--><rect codeLine="56" fill="#FEFECE" filter="url(#faomy8h3qa1sj)" height="60.9551" id="MutCommand" style="stroke:#A80036;stroke-width:1.5;" width="112" x="666" y="374"/><ellipse cx="681" cy="390" fill="#B4A7E5" rx="11" ry="11" style="stroke:#A80036;stroke-width:1.0;"/><path d="M677.4277,386.2651 L677.4277,384.1069 L684.8071,384.1069 L684.8071,386.2651 L682.3418,386.2651 L682.3418,394.3418 L684.8071,394.3418 L684.8071,396.5 L677.4277,396.5 L677.4277,394.3418 L679.8931,394.3418 L679.8931,386.2651 Z " fill="#000000"/><text fill="#000000" font-family="sans-serif" font-size="12" font-style="italic" lengthAdjust="spacing" textLength="80" x="695" y="394.5352">MutCommand</text><line style="stroke:#A80036;stroke-width:1.5;" x1="667" x2="777" y1="406" y2="406"/><line style="stroke:#A80036;stroke-width:1.5;" x1="667" x2="777" y1="414" y2="414"/><ellipse cx="677" cy="425" fill="#84BE84" rx="3" ry="3" style="stroke:#038048;stroke-width:1.0;"/><text fill="#000000" font-family="sans-serif" font-size="11" lengthAdjust="spacing" textLength="64" x="686" y="428.6348">unexecute()</text><!--MD5=[628cc5a2753cca06eb1ffef55c386535]
class Parser--><rect codeLine="61" fill="#FEFECE" filter="url(#faomy8h3qa1sj)" height="73.9102" id="Parser" style="stroke:#A80036;stroke-width:1.5;" width="214" x="469" y="257"/><ellipse cx="553.25" cy="273" fill="#B4A7E5" rx="11" ry="11" style="stroke:#A80036;stroke-width:1.0;"/><path d="M549.6777,269.2651 L549.6777,267.1069 L557.0571,267.1069 L557.0571,269.2651 L554.5918,269.2651 L554.5918,277.3418 L557.0571,277.3418 L557.0571,279.5 L549.6777,279.5 L549.6777,277.3418 L552.1431,277.3418 L552.1431,269.2651 Z " fill="#000000"/><text fill="#000000" font-family="sans-serif" font-size="12" font-style="italic" lengthAdjust="spacing" textLength="37" x="573.75" y="277.5352">Parser</text><line style="stroke:#A80036;stroke-width:1.5;" x1="470" x2="682" y1="289" y2="289"/><line style="stroke:#A80036;stroke-width:1.5;" x1="470" x2="682" y1="297" y2="297"/><ellipse cx="480" cy="308" fill="#84BE84" rx="3" ry="3" style="stroke:#038048;stroke-width:1.0;"/><text fill="#000000" font-family="sans-serif" font-size="11" lengthAdjust="spacing" textLength="128" x="489" y="311.6348">Command parse(string)</text><ellipse cx="480" cy="320.9551" fill="#84BE84" rx="3" ry="3" style="stroke:#038048;stroke-width:1.0;"/><text fill="#000000" font-family="sans-serif" font-size="11" lengthAdjust="spacing" textLength="188" x="489" y="324.5898">defindMacro(string, MutCommand)</text><!--MD5=[b47b793295e6b53a76a276dff333c727]
class TheParser--><rect codeLine="65" fill="#FEFECE" filter="url(#faomy8h3qa1sj)" height="48" id="TheParser" style="stroke:#A80036;stroke-width:1.5;" width="91" x="477.5" y="41"/><ellipse cx="492.5" cy="57" fill="#ADD1B2" rx="11" ry="11" style="stroke:#A80036;stroke-width:1.0;"/><path d="M496.1143,63.5 L488.3945,63.5 L488.3945,51.1069 L496.1143,51.1069 L496.1143,53.2651 L490.8433,53.2651 L490.8433,55.938 L495.6162,55.938 L495.6162,58.0962 L490.8433,58.0962 L490.8433,61.3418 L496.1143,61.3418 Z " fill="#000000"/><text fill="#000000" font-family="sans-serif" font-size="12" lengthAdjust="spacing" textLength="59" x="506.5" y="61.5352">TheParser</text><line style="stroke:#A80036;stroke-width:1.5;" x1="478.5" x2="567.5" y1="73" y2="73"/><line style="stroke:#A80036;stroke-width:1.5;" x1="478.5" x2="567.5" y1="81" y2="81"/><!--MD5=[d01e39adb8cc3240d418de1aedb45e74]
class Invoker--><rect codeLine="68" fill="#FEFECE" filter="url(#faomy8h3qa1sj)" height="86.8652" id="Invoker" style="stroke:#A80036;stroke-width:1.5;" width="131" x="373.5" y="361"/><ellipse cx="414.15" cy="377" fill="#B4A7E5" rx="11" ry="11" style="stroke:#A80036;stroke-width:1.0;"/><path d="M410.5777,373.2651 L410.5777,371.1069 L417.9571,371.1069 L417.9571,373.2651 L415.4918,373.2651 L415.4918,381.3418 L417.9571,381.3418 L417.9571,383.5 L410.5777,383.5 L410.5777,381.3418 L413.0431,381.3418 L413.0431,373.2651 Z " fill="#000000"/><text fill="#000000" font-family="sans-serif" font-size="12" font-style="italic" lengthAdjust="spacing" textLength="42" x="433.85" y="381.5352">Invoker</text><line style="stroke:#A80036;stroke-width:1.5;" x1="374.5" x2="503.5" y1="393" y2="393"/><line style="stroke:#A80036;stroke-width:1.5;" x1="374.5" x2="503.5" y1="401" y2="401"/><ellipse cx="384.5" cy="412" fill="#84BE84" rx="3" ry="3" style="stroke:#038048;stroke-width:1.0;"/><text fill="#000000" font-family="sans-serif" font-size="11" lengthAdjust="spacing" textLength="105" x="393.5" y="415.6348">execute(Command)</text><ellipse cx="384.5" cy="424.9551" fill="#84BE84" rx="3" ry="3" style="stroke:#038048;stroke-width:1.0;"/><text fill="#000000" font-family="sans-serif" font-size="11" lengthAdjust="spacing" textLength="36" x="393.5" y="428.5898">undo()</text><ellipse cx="384.5" cy="437.9102" fill="#84BE84" rx="3" ry="3" style="stroke:#038048;stroke-width:1.0;"/><text fill="#000000" font-family="sans-serif" font-size="11" lengthAdjust="spacing" textLength="33" x="393.5" y="441.5449">redo()</text><!--MD5=[4370b0a86fe06aaab0e7070489246bef]
class TheInvoker--><rect codeLine="73" fill="#FEFECE" filter="url(#faomy8h3qa1sj)" height="48" id="TheInvoker" style="stroke:#A80036;stroke-width:1.5;" width="96" x="415" y="172.5"/><ellipse cx="430" cy="188.5" fill="#ADD1B2" rx="11" ry="11" style="stroke:#A80036;stroke-width:1.0;"/><path d="M433.6143,195 L425.8945,195 L425.8945,182.6069 L433.6143,182.6069 L433.6143,184.7651 L428.3433,184.7651 L428.3433,187.438 L433.1162,187.438 L433.1162,189.5962 L428.3433,189.5962 L428.3433,192.8418 L433.6143,192.8418 Z " fill="#000000"/><text fill="#000000" font-family="sans-serif" font-size="12" lengthAdjust="spacing" textLength="64" x="444" y="193.0352">TheInvoker</text><line style="stroke:#A80036;stroke-width:1.5;" x1="416" x2="510" y1="204.5" y2="204.5"/><line style="stroke:#A80036;stroke-width:1.5;" x1="416" x2="510" y1="212.5" y2="212.5"/><!--MD5=[6ea451e4742352fdf230812c2c4c6482]
class Show--><rect codeLine="79" fill="#FEFECE" filter="url(#faomy8h3qa1sj)" height="73.9102" id="Show" style="stroke:#A80036;stroke-width:1.5;" width="71" x="418.5" y="522"/><ellipse cx="438" cy="538" fill="#ADD1B2" rx="11" ry="11" style="stroke:#A80036;stroke-width:1.0;"/><path d="M440.4731,544.1431 Q439.8921,544.4419 439.2529,544.5913 Q438.6138,544.7407 437.9082,544.7407 Q435.4014,544.7407 434.0815,543.0889 Q432.7617,541.437 432.7617,538.3159 Q432.7617,535.1865 434.0815,533.5347 Q435.4014,531.8828 437.9082,531.8828 Q438.6138,531.8828 439.2612,532.0322 Q439.9087,532.1816 440.4731,532.4805 L440.4731,535.2031 Q439.8423,534.6221 439.2488,534.3523 Q438.6553,534.0825 438.0244,534.0825 Q436.6797,534.0825 435.9949,535.1492 Q435.3101,536.2158 435.3101,538.3159 Q435.3101,540.4077 435.9949,541.4744 Q436.6797,542.541 438.0244,542.541 Q438.6553,542.541 439.2488,542.2712 Q439.8423,542.0015 440.4731,541.4204 Z " fill="#000000"/><text fill="#000000" font-family="sans-serif" font-size="12" lengthAdjust="spacing" textLength="29" x="453" y="542.5352">Show</text><line style="stroke:#A80036;stroke-width:1.5;" x1="419.5" x2="488.5" y1="554" y2="554"/><rect fill="none" height="6" style="stroke:#C82930;stroke-width:1.0;" width="6" x="426.5" y="562"/><text fill="#000000" font-family="sans-serif" font-size="11" lengthAdjust="spacing" textLength="41" x="438.5" y="568.6348">content</text><rect fill="none" height="6" style="stroke:#C82930;stroke-width:1.0;" width="6" x="426.5" y="574.9551"/><text fill="#000000" font-family="sans-serif" font-size="11" lengthAdjust="spacing" textLength="45" x="438.5" y="581.5898">io.Writer</text><line style="stroke:#A80036;stroke-width:1.5;" x1="419.5" x2="488.5" y1="587.9102" y2="587.9102"/><!--MD5=[5ed48e7918b6940b6b8bc245d6aff237]
class AppendFront--><rect codeLine="85" fill="#FEFECE" filter="url(#faomy8h3qa1sj)" height="73.9102" id="AppendFront" style="stroke:#A80036;stroke-width:1.5;" width="107" x="670.5" y="522"/><ellipse cx="685.5" cy="538" fill="#ADD1B2" rx="11" ry="11" style="stroke:#A80036;stroke-width:1.0;"/><path d="M687.9731,544.1431 Q687.3921,544.4419 686.7529,544.5913 Q686.1138,544.7407 685.4082,544.7407 Q682.9014,544.7407 681.5815,543.0889 Q680.2617,541.437 680.2617,538.3159 Q680.2617,535.1865 681.5815,533.5347 Q682.9014,531.8828 685.4082,531.8828 Q686.1138,531.8828 686.7612,532.0322 Q687.4087,532.1816 687.9731,532.4805 L687.9731,535.2031 Q687.3423,534.6221 686.7488,534.3523 Q686.1553,534.0825 685.5244,534.0825 Q684.1797,534.0825 683.4949,535.1492 Q682.8101,536.2158 682.8101,538.3159 Q682.8101,540.4077 683.4949,541.4744 Q684.1797,542.541 685.5244,542.541 Q686.1553,542.541 686.7488,542.2712 Q687.3423,542.0015 687.9731,541.4204 Z " fill="#000000"/><text fill="#000000" font-family="sans-serif" font-size="12" lengthAdjust="spacing" textLength="75" x="699.5" y="542.5352">AppendFront</text><line style="stroke:#A80036;stroke-width:1.5;" x1="671.5" x2="776.5" y1="554" y2="554"/><rect fill="none" height="6" style="stroke:#C82930;stroke-width:1.0;" width="6" x="678.5" y="562"/><text fill="#000000" font-family="sans-serif" font-size="11" lengthAdjust="spacing" textLength="41" x="690.5" y="568.6348">content</text><rect fill="none" height="6" style="stroke:#C82930;stroke-width:1.0;" width="6" x="678.5" y="574.9551"/><text fill="#000000" font-family="sans-serif" font-size="11" lengthAdjust="spacing" textLength="18" x="690.5" y="581.5898">arg</text><line style="stroke:#A80036;stroke-width:1.5;" x1="671.5" x2="776.5" y1="587.9102" y2="587.9102"/><!--MD5=[2322518108a91cf4b17e9b1ce9d21af2]
class CheckSpelling--><rect codeLine="91" fill="#FEFECE" filter="url(#faomy8h3qa1sj)" height="99.8203" id="CheckSpelling" style="stroke:#A80036;stroke-width:1.5;" width="111" x="524.5" y="509"/><ellipse cx="539.5" cy="525" fill="#ADD1B2" rx="11" ry="11" style="stroke:#A80036;stroke-width:1.0;"/><path d="M541.9731,531.1431 Q541.3921,531.4419 540.7529,531.5913 Q540.1138,531.7407 539.4082,531.7407 Q536.9014,531.7407 535.5815,530.0889 Q534.2617,528.437 534.2617,525.3159 Q534.2617,522.1865 535.5815,520.5347 Q536.9014,518.8828 539.4082,518.8828 Q540.1138,518.8828 540.7612,519.0322 Q541.4087,519.1816 541.9731,519.4805 L541.9731,522.2031 Q541.3423,521.6221 540.7488,521.3523 Q540.1553,521.0825 539.5244,521.0825 Q538.1797,521.0825 537.4949,522.1492 Q536.8101,523.2158 536.8101,525.3159 Q536.8101,527.4077 537.4949,528.4744 Q538.1797,529.541 539.5244,529.541 Q540.1553,529.541 540.7488,529.2712 Q541.3423,529.0015 541.9731,528.4204 Z " fill="#000000"/><text fill="#000000" font-family="sans-serif" font-size="12" lengthAdjust="spacing" textLength="79" x="553.5" y="529.5352">CheckSpelling</text><line style="stroke:#A80036;stroke-width:1.5;" x1="525.5" x2="634.5" y1="541" y2="541"/><rect fill="none" height="6" style="stroke:#C82930;stroke-width:1.0;" width="6" x="532.5" y="549"/><text fill="#000000" font-family="sans-serif" font-size="11" lengthAdjust="spacing" textLength="44" x="544.5" y="555.6348">Checker</text><rect fill="none" height="6" style="stroke:#C82930;stroke-width:1.0;" width="6" x="532.5" y="561.9551"/><text fill="#000000" font-family="sans-serif" font-size="11" lengthAdjust="spacing" textLength="53" x="544.5" y="568.5898">Tokenizer</text><rect fill="none" height="6" style="stroke:#C82930;stroke-width:1.0;" width="6" x="532.5" y="574.9102"/><text fill="#000000" font-family="sans-serif" font-size="11" lengthAdjust="spacing" textLength="41" x="544.5" y="581.5449">content</text><rect fill="none" height="6" style="stroke:#C82930;stroke-width:1.0;" width="6" x="532.5" y="587.8652"/><text fill="#000000" font-family="sans-serif" font-size="11" lengthAdjust="spacing" textLength="45" x="544.5" y="594.5">io.Writer</text><line style="stroke:#A80036;stroke-width:1.5;" x1="525.5" x2="634.5" y1="600.8203" y2="600.8203"/><!--MD5=[3c0bf91da63e4f1bfa507793e7998d54]
link TheChecker to Checker--><path codeLine="7" d="M199.94,89.15 C182.71,106.45 158.64,130.61 137.8,151.53 " fill="none" id="TheChecker-to-Checker" style="stroke:#A80036;stroke-width:1.0;"/><polygon fill="none" points="142.75,156.48,123.67,165.71,132.83,146.6,142.75,156.48" style="stroke:#A80036;stroke-width:1.0;"/><!--MD5=[fa287b0863d2fa543cc78cc9d6431659]
reverse link Checker to DictChecker--><path codeLine="12" d="M94,247.16 C94,284.27 94,334.12 94,367.45 " fill="none" id="Checker-backto-DictChecker" style="stroke:#A80036;stroke-width:1.0;"/><polygon fill="none" points="87,247.01,94,227.01,101,247.01,87,247.01" style="stroke:#A80036;stroke-width:1.0;"/><!--MD5=[fc7d6674e93ea64fd82f4adc4fc5715d]
reverse link DictChecker to EngDictChecker--><path codeLine="15" d="M145.2,455.87 C172.31,482.55 204.31,514.03 225.53,534.91 " fill="none" id="DictChecker-backto-EngDictChecker" style="stroke:#A80036;stroke-width:1.0;"/><polygon fill="none" points="140.08,460.66,130.73,441.64,149.9,450.68,140.08,460.66" style="stroke:#A80036;stroke-width:1.0;"/><!--MD5=[bd8129d50050f59063c42b44d55b95d6]
reverse link DictChecker to FraDictChecker--><path codeLine="16" d="M93.63,461.87 C93.46,487.16 93.28,515.57 93.15,534.91 " fill="none" id="DictChecker-backto-FraDictChecker" style="stroke:#A80036;stroke-width:1.0;"/><polygon fill="none" points="86.63,461.59,93.76,441.64,100.63,461.69,86.63,461.59" style="stroke:#A80036;stroke-width:1.0;"/><!--MD5=[cee88ff645d6945cd4a2d6df3b47c229]
link TheLangManager to LangManager--><path codeLine="22" d="M251.34,220.73 C251.81,252.79 252.66,311.43 253.27,353.65 " fill="none" id="TheLangManager-to-LangManager" style="stroke:#A80036;stroke-width:1.0;"/><polygon fill="none" points="260.27,353.62,253.57,373.72,246.28,353.82,260.27,353.62" style="stroke:#A80036;stroke-width:1.0;"/><!--MD5=[921748abe567852041593d3726a84442]
link LangManager to DictChecker--><path codeLine="23" d="M190.96,404.5 C179.37,404.5 167.78,404.5 156.19,404.5 " fill="none" id="LangManager-DictChecker" style="stroke:#A80036;stroke-width:1.0;"/><!--MD5=[61f15ec3f75629b1a60471aef2c64475]
link Token to Tokenizer--><path codeLine="35" d="M914.17,404.5 C925.76,404.5 937.35,404.5 948.94,404.5 " fill="none" id="Token-Tokenizer" style="stroke:#A80036;stroke-width:1.0;"/><!--MD5=[525a5cdce42fd38a46a9c443e49d1717]
link TheTokenizer to Tokenizer--><path codeLine="36" d="M902.97,220.73 C921.24,253.45 954.95,313.85 978.61,356.23 " fill="none" id="TheTokenizer-to-Tokenizer" style="stroke:#A80036;stroke-width:1.0;"/><polygon fill="none" points="984.74,352.84,988.37,373.72,972.51,359.67,984.74,352.84" style="stroke:#A80036;stroke-width:1.0;"/><!--MD5=[c380e5556796d6448e6f1d59f54dfea0]
reverse link Tokenizer to TxtTokenizer--><path codeLine="40" d="M1022.23,454.16 C1031.79,481.14 1043.23,513.45 1050.78,534.79 " fill="none" id="Tokenizer-backto-TxtTokenizer" style="stroke:#A80036;stroke-width:1.0;"/><polygon fill="none" points="1015.62,456.46,1015.54,435.27,1028.81,451.78,1015.62,456.46" style="stroke:#A80036;stroke-width:1.0;"/><!--MD5=[3ea6f2cc560e2590dfb8a3879934fc68]
reverse link Tokenizer to XmlTokenizer--><path codeLine="41" d="M976.59,452.59 C960.13,479.88 940.13,513.04 927,534.79 " fill="none" id="Tokenizer-backto-XmlTokenizer" style="stroke:#A80036;stroke-width:1.0;"/><polygon fill="none" points="970.72,448.77,987.04,435.27,982.71,456.01,970.72,448.77" style="stroke:#A80036;stroke-width:1.0;"/><!--MD5=[d2e69aa764e155a68db4d9604295f54a]
link TheContentTypeManager to ContentTypeManager--><path codeLine="47" d="M998.23,89.15 C1007.59,105.53 1020.46,128.06 1031.95,148.17 " fill="none" id="TheContentTypeManager-to-ContentTypeManager" style="stroke:#A80036;stroke-width:1.0;"/><polygon fill="none" points="1038.13,144.87,1041.98,165.71,1025.98,151.82,1038.13,144.87" style="stroke:#A80036;stroke-width:1.0;"/><!--MD5=[64e03063a39b729f6fce585037a87170]
link ContentTypeManager to TheTokenizer--><path codeLine="49" d="M981.39,196.5 C969.63,196.5 957.87,196.5 946.11,196.5 " fill="none" id="ContentTypeManager-TheTokenizer" style="stroke:#A80036;stroke-width:1.0;"/><!--MD5=[72121fa15dc783d14add33b75f1ba636]
reverse link Command to MutCommand--><path codeLine="59" d="M650.95,404.5 C655.86,404.5 660.77,404.5 665.69,404.5 " fill="none" id="Command-backto-MutCommand" style="stroke:#A80036;stroke-width:1.0;"/><polygon fill="none" points="650.76,411.5,630.76,404.5,650.76,397.5,650.76,411.5" style="stroke:#A80036;stroke-width:1.0;"/><!--MD5=[d8575a2f851485f5f17297eed957e1e8]
link TheParser to Parser--><path codeLine="66" d="M540.5,89.13 C546.38,98.03 552.36,108.56 556,119 C569.23,156.92 574.13,202.03 575.78,236.82 " fill="none" id="TheParser-to-Parser" style="stroke:#A80036;stroke-width:1.0;"/><polygon fill="none" points="582.78,236.77,576.43,256.99,568.79,237.22,582.78,236.77" style="stroke:#A80036;stroke-width:1.0;"/><!--MD5=[b3ef48b44b2210e65cbeee51bb0db37f]
link TheInvoker to Invoker--><path codeLine="74" d="M458.21,220.59 C456.06,231.58 453.65,244.93 452,257 C448.27,284.31 445.38,314.64 443.27,340.59 " fill="none" id="TheInvoker-to-Invoker" style="stroke:#A80036;stroke-width:1.0;"/><polygon fill="none" points="450.24,341.35,441.73,360.75,436.28,340.27,450.24,341.35" style="stroke:#A80036;stroke-width:1.0;"/><!--MD5=[1fc7c1e446da3eb9b78b8bbcd1524564]
link Invoker to Command--><path codeLine="76" d="M504.59,404.5 C516.21,404.5 527.83,404.5 539.45,404.5 " fill="none" id="Invoker-Command" style="stroke:#A80036;stroke-width:1.0;"/><!--MD5=[f0ffe6497b7d1d01b68217af11f4b39a]
link Parser to Command--><path codeLine="77" d="M579,331.13 C580.14,344.94 581.43,360.52 582.53,373.67 " fill="none" id="Parser-Command" style="stroke:#A80036;stroke-width:1.0;"/><!--MD5=[a328e70c3022d96fc22ac4b6ac07bd37]
reverse link Command to Show--><path codeLine="83" d="M546.32,450.53 C526.78,473.28 503.39,500.5 485.04,521.86 " fill="none" id="Command-backto-Show" style="stroke:#A80036;stroke-width:1.0;"/><polygon fill="none" points="541.09,445.88,559.43,435.27,551.71,455,541.09,445.88" style="stroke:#A80036;stroke-width:1.0;"/><!--MD5=[27eb5c8fd5a3b4b069eadf6e39b3863e]
reverse link MutCommand to AppendFront--><path codeLine="89" d="M722.66,455.54 C722.94,477.19 723.27,502.05 723.53,521.86 " fill="none" id="MutCommand-backto-AppendFront" style="stroke:#A80036;stroke-width:1.0;"/><polygon fill="none" points="715.65,455.36,722.39,435.27,729.65,455.17,715.65,455.36" style="stroke:#A80036;stroke-width:1.0;"/><!--MD5=[4b341912a377e7096e34e5176f4f765b]
reverse link Command to CheckSpelling--><path codeLine="97" d="M583.37,455.27 C582.81,472.45 582.17,491.67 581.61,508.8 " fill="none" id="Command-backto-CheckSpelling" style="stroke:#A80036;stroke-width:1.0;"/><polygon fill="none" points="576.37,455.03,584.02,435.27,590.36,455.48,576.37,455.03" style="stroke:#A80036;stroke-width:1.0;"/><!--MD5=[83460d2d2a0fefe1e58afd0c15a5000e]
link TheParser to TheTokenizer--><path codeLine="100" d="M568.74,82.14 C635.9,105.84 761.06,150 833.75,175.65 " fill="none" id="TheParser-TheTokenizer" style="stroke:#A80036;stroke-width:1.0;"/><text fill="#000000" font-family="sans-serif" font-size="13" lengthAdjust="spacing" textLength="54" x="718" y="132.5684">autowire</text><!--MD5=[ac6f897d87c8de000cb5068ffb664de2]
link TheParser to TheContentTypeManager--><path codeLine="101" d="M568.56,65 C644.48,65 798.19,65 896.13,65 " fill="none" id="TheParser-TheContentTypeManager" style="stroke:#A80036;stroke-width:1.0;"/><text fill="#000000" font-family="sans-serif" font-size="13" lengthAdjust="spacing" textLength="54" x="705.5" y="58.5684">autowire</text><!--MD5=[eea156c52fe0cce9014edec9fd64db2a]
link TheParser to TheInvoker--><path codeLine="102" d="M510.85,89.06 C506.08,98.3 500.65,109.09 496,119 C487.7,136.67 478.97,156.98 472.58,172.23 " fill="none" id="TheParser-TheInvoker" style="stroke:#A80036;stroke-width:1.0;"/><text fill="#000000" font-family="sans-serif" font-size="13" lengthAdjust="spacing" textLength="54" x="497" y="132.5684">autowire</text><!--MD5=[0adb2bfd89d2a15efb3a5ccacb03ec6e]
link TheParser to TheChecker--><path codeLine="103" d="M477.17,65 C422.24,65 330.49,65 273.55,65 " fill="none" id="TheParser-TheChecker" style="stroke:#A80036;stroke-width:1.0;"/><text fill="#000000" font-family="sans-serif" font-size="13" lengthAdjust="spacing" textLength="54" x="348.5" y="58.5684">autowire</text><!--MD5=[edc225b6eedaa3233f0a755ee8186de8]
link TheParser to TheLangManager--><path codeLine="104" d="M477.47,87.68 C428.17,111.15 349.84,148.44 299.43,172.44 " fill="none" id="TheParser-TheLangManager" style="stroke:#A80036;stroke-width:1.0;"/><text fill="#000000" font-family="sans-serif" font-size="13" lengthAdjust="spacing" textLength="54" x="413" y="132.5684">autowire</text><!--MD5=[cc93b5ec1834a11645b6101db4141765]
@startuml design

package spellcheck{
  interface Checker{
    bool check(string)
  }
  entity TheChecker
  TheChecker - -|> Checker
  class DictChecker{
    - dict
    + bool check(string)
  }
  Checker <|- - DictChecker
  entity EngDictChecker
  entity FraDictChecker
  DictChecker <|- - EngDictChecker
  DictChecker <|- - FraDictChecker

  interface LangManager{
    + switchLang(string)
  }
  entity TheLangManager
  TheLangManager - -|> LangManager
  LangManager - DictChecker
}

package token{
  entity TheTokenizer
  interface Token{
    isWord()
    getContext()
  }
  interface Tokenizer{
    []Token lex(string)
  }
  Token - Tokenizer
  TheTokenizer - -|> Tokenizer

  class TxtTokenizer
  class XmlTokenizer
  Tokenizer <|- - TxtTokenizer
  Tokenizer <|- - XmlTokenizer

  interface ContentTypeManager{
    switchContentType(string)
  }
  entity TheContentTypeManager
  TheContentTypeManager - -|> ContentTypeManager

  ContentTypeManager - TheTokenizer

}
package command{
  interface Command{
    + execute()
  }
  interface MutCommand{
    + unexecute()
  }
  Command <|- MutCommand

  interface Parser{
    + Command parse(string)
    + defindMacro(string, MutCommand)
  }
  entity TheParser
  TheParser - -|> Parser

  interface Invoker{
    + execute(Command)
    + undo()
    + redo()
  }
  entity TheInvoker
  TheInvoker - -|> Invoker

  Invoker - Command
  Parser - Command

  class Show{
    - content
    - io.Writer
  }
  Command <|- - Show

  class AppendFront{
    - content
    - arg
  }
  MutCommand <|- - AppendFront

  class CheckSpelling{
    - Checker
    - Tokenizer
    - content
    - io.Writer
  }
  Command <|- - CheckSpelling
}

TheParser - TheTokenizer : autowire
TheParser - TheContentTypeManager : autowire
TheParser - - TheInvoker : autowire
TheParser - TheChecker : autowire
TheParser - TheLangManager : autowire
@enduml

PlantUML version 1.2021.14(Sat Nov 13 00:46:50 CST 2021)
(GPL source distribution)
Java Runtime: OpenJDK Runtime Environment
JVM: OpenJDK 64-Bit Server VM
Default Encoding: UTF-8
Language: zh
Country: CN
--></g></svg>